<?xml version="1.0" encoding="UTF-8"?>
<svg width="527px" height="149px" viewBox="0 0 527 149" version="1.1" xmlns="http://www.w3.org/2000/svg" xmlns:xlink="http://www.w3.org/1999/xlink">
    <!-- Generator: Sketch 53.2 (72643) - https://sketchapp.com -->
    <title>Group 2</title>
    <desc>Created with Sketch.</desc>
    <defs>
        <linearGradient x1="133.781772%" y1="8.99960017%" x2="88.3126799%" y2="145.193153%" id="linearGradient-1">
            <stop stop-color="#5A5A5A" offset="0%"></stop>
            <stop stop-color="#F5F5F5" offset="100%"></stop>
        </linearGradient>
        <filter x="-10.0%" y="-6.5%" width="120.0%" height="113.0%" filterUnits="objectBoundingBox" id="filter-2">
            <feGaussianBlur stdDeviation="2" in="SourceGraphic"></feGaussianBlur>
        </filter>
        <linearGradient x1="85.3977986%" y1="8.99960017%" x2="66.1871073%" y2="145.193153%" id="linearGradient-3">
            <stop stop-color="#5A5A5A" offset="0%"></stop>
            <stop stop-color="#F5F5F5" offset="100%"></stop>
        </linearGradient>
        <filter x="-15.4%" y="-6.5%" width="130.8%" height="113.0%" filterUnits="objectBoundingBox" id="filter-4">
            <feGaussianBlur stdDeviation="2" in="SourceGraphic"></feGaussianBlur>
        </filter>
        <linearGradient x1="-137.393449%" y1="100%" x2="234.58449%" y2="-53.4969797%" id="linearGradient-5">
            <stop stop-color="#DFDFDF" stop-opacity="0.280430507" offset="0%"></stop>
            <stop stop-color="#535353" stop-opacity="0.280430507" offset="100%"></stop>
        </linearGradient>
        <filter x="-50.0%" y="-50.0%" width="200.0%" height="200.0%" filterUnits="objectBoundingBox" id="filter-6">
            <feGaussianBlur stdDeviation="2" in="SourceGraphic"></feGaussianBlur>
        </filter>
        <linearGradient x1="230.223901%" y1="8.99960017%" x2="132.414831%" y2="145.193153%" id="linearGradient-7">
            <stop stop-color="#5A5A5A" offset="0%"></stop>
            <stop stop-color="#F5F5F5" offset="100%"></stop>
        </linearGradient>
        <filter x="-6.8%" y="-6.5%" width="113.6%" height="113.0%" filterUnits="objectBoundingBox" id="filter-8">
            <feGaussianBlur stdDeviation="2" in="SourceGraphic"></feGaussianBlur>
        </filter>
        <filter x="-6.8%" y="-6.5%" width="113.6%" height="113.0%" filterUnits="objectBoundingBox" id="filter-9">
            <feGaussianBlur stdDeviation="2" in="SourceGraphic"></feGaussianBlur>
        </filter>
        <filter x="-6.8%" y="-6.5%" width="113.6%" height="113.0%" filterUnits="objectBoundingBox" id="filter-10">
            <feGaussianBlur stdDeviation="2" in="SourceGraphic"></feGaussianBlur>
        </filter>
        <linearGradient x1="75.9978272%" y1="19.9670204%" x2="4.53848143%" y2="100%" id="linearGradient-11">
            <stop stop-color="#B1B1B1" offset="0%"></stop>
            <stop stop-color="#ECECEC" offset="100%"></stop>
        </linearGradient>
        <filter x="-6.9%" y="-6.2%" width="113.7%" height="112.4%" filterUnits="objectBoundingBox" id="filter-12">
            <feGaussianBlur stdDeviation="3" in="SourceGraphic"></feGaussianBlur>
        </filter>
    </defs>
    <g id="Page-1" stroke="none" stroke-width="1" fill="none" fill-rule="evenodd">
        <g id="Artboard" transform="translate(-148.000000, -924.000000)">
            <g id="Group-2" transform="translate(150.000000, 931.000000)">
                <g id="Group" transform="translate(0.000000, 0.000000)">
                    <path d="M40,45 L63,45 C50.6595498,79.9220236 40.6595498,103.255357 33,115 C25.3404502,126.744643 15.3404502,134.077976 3,137 L3,114 C6.94666667,113.333333 12.2088889,108 18.7866667,98 C25.3644444,88 32.4355556,70.3333333 40,45 Z" id="Combined-Shape" fill="url(#linearGradient-1)" filter="url(#filter-2)"></path>
                    <path d="M98,80.5 L98,116 C91.7179925,114 86.3573461,109.333333 81.9180608,102 C77.4787755,94.6666667 80.7454194,75.6666667 91.7179925,45 L98,45 L98,80.5 L98,116 L92,137 C80.562846,130.329557 73.1308038,125.16289 69.7038734,121.5 C60.3163531,111.466107 58.3187582,100.477177 59.1821058,91 C59.3721011,88.9143757 59.5350787,86.8691939 59.6710387,84.8644548 C63.2688356,68.2165917 66.7118227,54.9284401 70,45 L98,45 L98,80.5 Z M59,95.0434901 L59,88 C59.0103826,87.9510161 59.020764,87.9020598 59.0311441,87.8531313 L59,95.0434901 Z" id="Combined-Shape" fill="url(#linearGradient-3)" filter="url(#filter-4)"></path>
                    <circle id="Oval" stroke="url(#linearGradient-5)" stroke-width="10" filter="url(#filter-6)" cx="109" cy="59" r="11"></circle>
                    <path d="M139.75,45 L171.5,45 C166.875521,58.3792978 160.375521,68.0459644 152,74 C143.624479,79.9540356 128.957813,85.6207022 108,91 L108,45 L139.75,45 L196,45 C194,51.3333333 190.833333,57.9166667 186.5,64.75 C182.166667,71.5833333 174.833333,79.3333333 164.5,88 L157,137 L108,137 L108,122.25 L108,107.5 C114.52869,106.803073 119.52869,106.136407 123,105.5 C126.47131,104.863593 131.47131,103.696927 138,102 L132.5,137 L108,137 L108,122.25 L108,45 L139.75,45 Z" id="Combined-Shape" fill="url(#linearGradient-7)" filter="url(#filter-8)"></path>
                    <path d="M253.5,136.044714 L263.479875,119.403354 C258.928768,118.827435 254.794219,117.84359 251.07623,116.451819 C247.1413,114.978839 243.973827,113.161566 241.573811,111 C237.674986,107.406901 235.317049,104.740234 234.5,103 C234.343585,102.666851 234.198789,102.324182 234.065613,101.971993 L234,102 C233.924297,101.712162 233.852769,101.433163 233.785417,101.163001 C233.383449,99.8901727 233.121643,98.5025056 233,97 C232.836002,95.0184837 233,92.4168873 233,91 C233,88.3333333 233.666667,85.0833333 235,81.25 L258.5,81.25 C255.910966,85.8673192 253.410966,89.3256526 251,91.625 C248.589034,93.9243474 246.826886,95.7160141 245.713556,97 L267.87109,97 C273.003757,90.0654239 276.546727,84.4820906 278.5,80.25 C280.5,75.9166667 282.333333,70.1666667 284,63 L284,80.25 L284,137 L196,137 L196,45 L208.25,45 L220.5,45 L218,63 L196,63 L196,45 L208.25,45 L240,45 L237,63 L284,63 L284,80.25 L284,97.5 L284,137 L252.927112,137 L196,137 L196,81.25 L215,81.25 C213.765599,92.7693968 213.765599,101.769397 215,108.25 C217,118.75 219.108244,119.705641 230.5,127.5 C236.833333,131.833333 244.5,134.666667 253.5,136 L253.5,136.044714 Z" id="Combined-Shape" fill="url(#linearGradient-7)" filter="url(#filter-9)"></path>
                    <path d="M291,117.5 C308.247998,116.239444 320.081331,113.447777 326.5,109.125 C332.014882,105.410896 336.605519,98.8284171 340.271909,89.3775646 C340.322572,89.5221232 341.231936,87.3962683 343,83 C344.654408,78.8863369 347.127897,71.3863369 350.420466,60.5 L375.488869,60.5 C368.805682,87.4979905 360.809393,106.49799 351.5,117.5 C342.531064,128.099652 327.468051,134.599652 306.310962,137 L291,137 L291,117.5 Z M291,68 L291,45 L331,45 L324.126437,68 L291,68 Z M355,45 L379,45 L355,45 Z" id="Combined-Shape" fill="url(#linearGradient-7)" filter="url(#filter-10)"></path>
                    <path d="M37,46 L60,46 C47.6595498,80.9220236 37.6595498,104.255357 30,116 C22.3404502,127.744643 12.3404502,135.077976 3.55271368e-15,138 L3.55271368e-15,115 C3.94666667,114.333333 9.20888889,109 15.7866667,99 C22.3644444,89 29.4355556,71.3333333 37,46 Z" id="Combined-Shape" fill="#18AC6A"></path>
                    <path d="M95,81.5 L95,117 C88.7179925,115 83.3573461,110.333333 78.9180608,103 C74.4787755,95.6666667 77.7454194,76.6666667 88.7179925,46 L95,46 L95,81.5 L95,117 L89,138 C77.562846,131.329557 70.1308038,126.16289 66.7038734,122.5 C57.3163531,112.466107 55.3187582,101.477177 56.1821058,92 C56.3721011,89.9143757 56.5350787,87.8691939 56.6710387,85.8644548 C60.2688356,69.2165917 63.7118227,55.9284401 67,46 L95,46 L95,81.5 Z M56,96.0434901 L56,89 C56.0103826,88.9510161 56.020764,88.9020598 56.0311441,88.8531313 L56,96.0434901 Z" id="Combined-Shape" fill="#18AC6A"></path>
                    <circle id="Oval" stroke="#18AC6A" stroke-width="10" cx="106" cy="61" r="11"></circle>
                    <path d="M288,118.5 C305.247998,117.239444 317.081331,114.447777 323.5,110.125 C329.014882,106.410896 333.605519,99.8284171 337.271909,90.3775646 C337.322572,90.5221232 338.231936,88.3962683 340,84 C341.654408,79.8863369 344.127897,72.3863369 347.420466,61.5 L372.488869,61.5 C365.805682,88.4979905 357.809393,107.49799 348.5,118.5 C339.531064,129.099652 324.468051,135.599652 303.310962,138 L288,138 L288,118.5 Z M288,69 L288,46 L328,46 L321.126437,69 L288,69 Z M352,46 L376,46 L352,46 Z" id="Combined-Shape" fill="#18AC6A"></path>
                    <path d="M138,45 L171,45 C165.005774,58.3792978 157.787926,68.0459644 149.346457,74 C145.500442,76.7127161 140.978415,80.8217484 134.5,83 C129.339462,84.735139 119.506129,86.4018057 105,88 L105,45 L138,45 L193,45 C191,51.3333333 187.833333,57.9166667 183.5,64.75 C179.166667,71.5833333 171.833333,79.3333333 161.5,88 L154,137 L131.133333,137 L137,102 C130.036064,103.696927 124.70273,104.863593 121,105.5 C117.29727,106.136407 111.963936,106.803073 105,107.5 L105,45 L138,45 Z" id="Combined-Shape" fill="#18AC6A"></path>
                    <path d="M251.299248,135.888721 C242.52315,134.508178 235.023401,131.697737 228.8,127.457399 C221.074138,122.193353 221.074138,122.5 216.517606,115.979493 C215.241073,114.152744 214,112 213.165217,108.121076 C211.770377,101.639773 211.770377,92.599414 213.165217,81 L194,81 L194,45 L206.5,45 L219,45 L216.44898,63 L194,63 L194,45 L206.5,45 L238,45 L235,63 L282,63 L282,80.5 L282,98 L281.046861,98 L281.046861,98 L282,98 L282,117.5 L282,80.5 L282,63 C280.282828,70.2705314 278.393939,76.1038647 276.333333,80.5 C274.368072,84.6927244 270.840872,90.1927244 265.751731,97 L243.608704,97 L243.747729,96.939759 C244.857688,95.6403034 246.614501,93.8270504 249.018167,91.5 C251.421833,89.1729496 253.415778,85.7572869 255,81.253012 L233.066612,81 C231.737316,84.8795181 231.072667,88.1686747 231.072667,90.8674699 C231.072667,92.3014281 230.909166,94.934369 231.072667,96.939759 C231.074293,96.9596943 231.075986,96.9797746 231.077746,97 L231,97 C231.143156,98.7491532 231.480435,100.340973 232.011835,101.775459 C232.030824,101.849706 232.050092,101.924553 232.06964,102 L232.093142,101.989816 C232.218679,102.313141 232.354299,102.628295 232.5,102.935278 C233.317049,104.65674 235.674986,107.294641 239.573811,110.848981 C241.973827,112.987231 245.1413,114.784901 249.07623,116.241991 C252.783391,117.614739 257.857128,117.122961 264.297442,114.766657 L251.299248,135.888721 Z" id="Combined-Shape" fill="#18AC6A"></path>
                    <g id="Group-3" transform="translate(390.000000, 0.000000)" fill="url(#linearGradient-11)">
                        <path d="M0.408736349,105.862044 C10.4443387,51.9741291 16.2688317,21.612471 17.8822153,14.7770701 C19.5171607,7.85031847 23.0766153,5.12274841 25.9697853,2.77070064 C28.2418785,0.923566879 31.9836193,-8.66869948e-13 37.1950078,-8.66862138e-13 L131,-3.41060513e-13 L131,56.7993631 L131,110.366242 L131,120.553315 L131,56.7993631 L131,-7.95807864e-13 L92.374415,-7.95807864e-13 C96.3595944,-5.26752032e-13 100.038222,1.14251592 103.410296,3.42754777 C106.269625,5.36512563 109.21578,8.11022208 110.767551,12.241242 C112.606864,17.1377389 111.423463,18.2673485 110.767551,25.4617834 C110.720578,25.9770037 105.202638,55.3559846 94.2137285,113.598726 L128.678244,113.598726 L121.081664,134.751525 C113.579667,135.056015 105.543345,134.777906 96.9726989,133.917197 C87.1256787,132.928309 77.7229924,132.012185 69.8428237,128.83758 C68.378284,128.247575 66.4469539,126.76904 64.0488333,124.401973 L71.6409334,107.595541 L71.4359407,107.92059 C71.7903512,107.180573 72.0578659,106.387103 72.224199,105.551902 L86.6342695,33.195214 C86.7623585,32.5520458 86.826869,31.8978371 86.826869,31.2420382 C86.826869,25.7191907 82.3497165,21.2420382 76.826869,21.2420382 L47.5782273,21.2420382 C42.7993464,21.2420382 38.688345,24.6233 37.7661759,29.3123625 L23.5362314,101.66905 C23.411228,102.30467 23.3482827,102.950932 23.3482827,103.598726 C23.3482827,109.121574 27.8254352,113.598726 33.3482827,113.598726 L62.4167985,113.598726 C65.5276467,113.598726 68.3560712,112.165806 70.2057084,109.871321 L54.4601656,134.838407 C35.66058,134.623242 23.927758,133.854389 19.2617005,132.531847 C13.682835,130.95058 8.33321169,129.261059 5.00702028,123.296178 C2.62272491,119.020406 1.0899636,114.887159 0.408736349,110.896438 L0.408736349,145 L91.9145866,145 L54.6684867,145 L0.408736349,145 L0.408736349,105.862044 Z M0.033876617,104.842373 L0.0115599301,106.960267 C-0.00933947116,106.249559 -0.00190057575,105.543595 0.0338766165,104.842373 Z M0.0489632798,107.794296 C0.169483026,107.146886 0.289407383,106.502802 0.408736349,105.862044 L0.408736349,110.896438 C0.230557161,109.85264 0.110632804,108.818593 0.0489632798,107.794296 Z" id="Combined-Shape" filter="url(#filter-12)"></path>
                    </g>
                    <g id="Group-3" transform="translate(386.000000, 0.000000)" fill="#18AC6A">
                        <path d="M0.408736349,105.862044 C10.4443387,51.9741291 16.2688317,21.612471 17.8822153,14.7770701 C19.5171607,7.85031847 23.0766153,5.12274841 25.9697853,2.77070064 C28.2418785,0.923566879 31.9836193,-8.66869948e-13 37.1950078,-8.66862138e-13 L131,-3.41060513e-13 L131,56.7993631 L131,110.366242 L131,120.553315 L131,56.7993631 L131,-7.95807864e-13 L92.374415,-7.95807864e-13 C96.3595944,-5.26752032e-13 100.038222,1.14251592 103.410296,3.42754777 C106.269625,5.36512563 109.21578,8.11022208 110.767551,12.241242 C112.606864,17.1377389 111.423463,18.2673485 110.767551,25.4617834 C110.720578,25.9770037 105.202638,55.3559846 94.2137285,113.598726 L128.678244,113.598726 L121.081664,134.751525 C113.579667,135.056015 105.543345,134.777906 96.9726989,133.917197 C87.1256787,132.928309 77.7229924,132.012185 69.8428237,128.83758 C68.378284,128.247575 66.4469539,126.76904 64.0488333,124.401973 L71.6409334,107.595541 L71.4359407,107.92059 C71.7903512,107.180573 72.0578659,106.387103 72.224199,105.551902 L86.6342695,33.195214 C86.7623585,32.5520458 86.826869,31.8978371 86.826869,31.2420382 C86.826869,25.7191907 82.3497165,21.2420382 76.826869,21.2420382 L47.5782273,21.2420382 C42.7993464,21.2420382 38.688345,24.6233 37.7661759,29.3123625 L23.5362314,101.66905 C23.411228,102.30467 23.3482827,102.950932 23.3482827,103.598726 C23.3482827,109.121574 27.8254352,113.598726 33.3482827,113.598726 L62.4167985,113.598726 C65.5276467,113.598726 68.3560712,112.165806 70.2057084,109.871321 L54.4601656,134.838407 C35.66058,134.623242 23.927758,133.854389 19.2617005,132.531847 C13.682835,130.95058 8.33321169,129.261059 5.00702028,123.296178 C2.62272491,119.020406 1.0899636,114.887159 0.408736349,110.896438 L0.408736349,145 L91.9145866,145 L54.6684867,145 L0.408736349,145 L0.408736349,105.862044 Z M0.033876617,104.842373 L0.0115599301,106.960267 C-0.00933947116,106.249559 -0.00190057575,105.543595 0.0338766165,104.842373 Z M0.0489632798,107.794296 C0.169483026,107.146886 0.289407383,106.502802 0.408736349,105.862044 L0.408736349,110.896438 C0.230557161,109.85264 0.110632804,108.818593 0.0489632798,107.794296 Z" id="Combined-Shape"></path>
                    </g>
                </g>
            </g>
        </g>
    </g>
</svg>