<svg xmlns="http://www.w3.org/2000/svg" viewBox="0 0 1013.68 429.07"><defs><style>.cls-1{fill:#315695;}</style></defs><title>アセット 1</title><g id="レイヤー_2" data-name="レイヤー 2"><g id="レイヤー_1-2" data-name="レイヤー 1"><path class="cls-1" d="M224.28,95.69h103V245.93q0,23.38-5.2,40.05T305,313.26q-11.91,10.61-31.82,15.37t-48.93,4.76H61.92v95.68H0V183.58q0-23.39,5.2-40.05t17.1-27.28q11.9-10.6,31.61-15.59t49.14-5ZM61.92,281.43h156.3q14.28,0,23.38-2.16a28.74,28.74,0,0,0,14.5-7.8,31.13,31.13,0,0,0,7.58-14.72q2.16-9.09,2.17-22.95V147.64H109.11q-13.86,0-23,2.38t-14.5,7.8q-5.43,5.42-7.58,14.72a101.7,101.7,0,0,0-2.16,22.73Zm0,52v95.68"/><path class="cls-1" d="M635.1,95.69v51.95H506.27q-14.52,0-24,2.38t-15.2,7.8q-5.67,5.42-7.94,14.72a97.16,97.16,0,0,0-2.27,22.73V333.39H392V183.58q0-23.39,5.45-40.05a59,59,0,0,1,17.92-27.28q12.46-10.6,33.11-15.59t51.49-5ZM456.82,195.27V333.39"/><path class="cls-1" d="M789.4,333.39h-103V183.15q0-23.39,5.2-40.05a59.27,59.27,0,0,1,17.1-27.28q11.91-10.62,31.82-15.37t48.93-4.76H951.77V0h61.91V245.49q0,23.38-5.19,40.05t-17.11,27.28q-11.89,10.6-31.6,15.59t-49.15,5ZM951.77,147.64H795.46q-14.28,0-23.38,2.17a28.81,28.81,0,0,0-14.5,7.79A31.18,31.18,0,0,0,750,172.32q-2.16,9.09-2.16,23v86.16H904.57q13.86,0,22.95-2.38t14.5-7.79q5.43-5.43,7.58-14.72a101.74,101.74,0,0,0,2.17-22.74Zm0-51.95V0"/></g></g></svg>